<?xml version="1.0" encoding="UTF-8" standalone="no"?>
<svg
   xmlns:dc="http://purl.org/dc/elements/1.1/"
   xmlns:cc="http://creativecommons.org/ns#"
   xmlns:rdf="http://www.w3.org/1999/02/22-rdf-syntax-ns#"
   xmlns:svg="http://www.w3.org/2000/svg"
   xmlns="http://www.w3.org/2000/svg"
   xmlns:sodipodi="http://sodipodi.sourceforge.net/DTD/sodipodi-0.dtd"
   xmlns:inkscape="http://www.inkscape.org/namespaces/inkscape"
   width="100"
   height="100"
   viewBox="0 0 26.458333 26.458334"
   version="1.1"
   id="svg8"
   sodipodi:docname="icon.svg"
   inkscape:version="1.0.2 (1.0.2+r75+1)">
  <defs
     id="defs2" />
  <sodipodi:namedview
     id="base"
     pagecolor="#ffffff"
     bordercolor="#666666"
     borderopacity="1.0"
     inkscape:pageopacity="0.0"
     inkscape:pageshadow="2"
     inkscape:zoom="2.715561"
     inkscape:cx="98.879442"
     inkscape:cy="46.484607"
     inkscape:document-units="mm"
     inkscape:current-layer="layer1"
     inkscape:document-rotation="0"
     showgrid="false"
     inkscape:window-width="1920"
     inkscape:window-height="964"
     inkscape:window-x="0"
     inkscape:window-y="31"
     inkscape:window-maximized="1"
     units="px" />
  <metadata
     id="metadata5">
    <rdf:RDF>
      <cc:Work
         rdf:about="">
        <dc:format>image/svg+xml</dc:format>
        <dc:type
           rdf:resource="http://purl.org/dc/dcmitype/StillImage" />
        <dc:title></dc:title>
      </cc:Work>
    </rdf:RDF>
  </metadata>
  <g
     inkscape:label="Layer 1"
     inkscape:groupmode="layer"
     id="layer1">
    <path
       style="opacity:1;fill:#010203;fill-opacity:1;stroke-width:0.34284;stroke-linecap:round"
       id="path847"
       d="m 12.973405,10.464577 c -0.03777,-0.5078493 -0.0064,-1.0194076 0.0664,-1.5229505 0.02496,-0.1726336 0.05911,-0.3438136 0.08866,-0.5157204 0.144151,-0.6593054 0.332575,-1.3173421 0.656995,-1.9131636 0.187945,-0.3451748 0.2396,-0.3891955 0.470396,-0.6886799 0.07817,-0.074283 0.147086,-0.1597223 0.234513,-0.2228494 0.151855,-0.1096437 0.367189,-0.169483 0.534405,-0.057104 0.115678,0.077742 0.158657,0.1847187 0.22862,0.3012775 0.03165,0.098535 0.06951,0.1952782 0.09488,0.2956034 0.143033,0.5653466 0.163412,1.1744499 0.133238,1.754254 -0.008,0.1529889 -0.02503,0.3053676 -0.03754,0.458048 -0.0793,0.6320048 -0.243797,1.2538789 -0.479966,1.8452949 -0.112435,0.261635 -0.154555,0.2546 0.399481,0.363579 0.04053,0.008 0.04823,-0.06716 0.0744,-0.09913 0.03367,-0.04115 0.252008,-0.287972 0.271344,-0.309907 0.492433,-0.5165745 1.038756,-0.983046 1.649582,-1.354712 0.146249,-0.088987 0.298862,-0.167066 0.448291,-0.2505988 0.323895,-0.1475344 0.509235,-0.2494539 0.850511,-0.3399945 0.236536,-0.062753 0.498417,-0.092334 0.743281,-0.090335 0.295942,0.0024 0.337327,0.027085 0.616611,0.090866 0.08181,0.03353 0.167056,0.059675 0.245419,0.1006236 0.168584,0.088089 0.355274,0.2372143 0.386939,0.4401242 0.02403,0.1540209 -0.04319,0.3516784 -0.07665,0.4907412 -0.247472,0.7312502 -0.702397,1.3642973 -1.223099,1.9263593 -0.118585,0.128003 -0.244962,0.248559 -0.367445,0.372838 -0.327629,0.320269 -0.686081,0.604376 -1.074766,0.846624 -0.101858,0.06349 -0.208193,0.11949 -0.311614,0.180392 -0.353143,0.207952 -0.135408,0.09482 -0.4508,0.248195 -0.271187,0.118064 -0.279442,0.04759 0.04216,0.508394 0.01793,0.02568 0.06267,-2.71e-4 0.09401,5.2e-5 0.22301,0.0021 0.125802,-0.0017 0.378486,0.02431 0.216414,0.03705 0.319286,0.04662 0.532655,0.11809 0.330118,0.110587 0.646713,0.276354 0.943967,0.455512 0.107566,0.06483 0.211391,0.135676 0.317085,0.203513 0.389292,0.277094 0.770176,0.592479 1.002621,1.019239 0.04702,0.08634 0.0899,0.176131 0.117777,0.270416 0.02568,0.08685 0.0277,0.178999 0.04155,0.268499 -0.0051,0.08756 -10e-4,0.176188 -0.0156,0.262683 -0.04066,0.241054 -0.164612,0.478382 -0.358708,0.63157 -0.189535,0.149588 -0.337197,0.179774 -0.565103,0.262303 -0.342507,0.06803 -0.446233,0.106562 -0.805427,0.101237 -0.510595,-0.0075 -1.013901,-0.131229 -1.493809,-0.29753 -0.171652,-0.05949 -0.338468,-0.132103 -0.507704,-0.198152 -0.466612,-0.198116 -0.91407,-0.436304 -1.356248,-0.683077 -0.160816,-0.08975 -0.397255,-0.220498 -0.556377,-0.328602 -0.04583,-0.03113 -0.08737,-0.06818 -0.131048,-0.102266 -0.124207,-0.136573 0.08728,0.08304 0.02537,0.191412 -0.05673,0.09926 -0.220116,0.08743 -0.296405,0.172591 -0.02352,0.02623 0.05102,0.04858 0.07643,0.07296 0.206965,0.198522 0.121831,0.116188 0.359049,0.352022 0.501346,0.501976 0.953312,1.057287 1.292545,1.682874 0.06757,0.124602 0.124152,0.254857 0.186227,0.382284 0.04517,0.124523 0.09706,0.24681 0.135531,0.373565 0.121664,0.400911 0.180934,0.849211 0.08328,1.262464 -0.02043,0.08639 -0.05619,0.168426 -0.08428,0.252639 -0.0385,0.07474 -0.07044,0.153253 -0.115517,0.224224 -0.08698,0.136961 -0.23514,0.314813 -0.418539,0.313478 -0.08754,-6.84e-4 -0.275156,-0.0995 -0.333308,-0.126044 -0.08094,-0.05257 -0.165164,-0.100411 -0.242831,-0.15771 -0.473979,-0.34968 -0.887857,-0.854124 -1.214799,-1.339407 -0.0987,-0.146496 -0.185853,-0.300445 -0.27878,-0.450667 -0.316965,-0.568138 -0.523777,-1.183254 -0.621843,-1.825452 -0.04289,-0.280874 -0.04677,-0.421785 -0.0647,-0.696404 0.0014,-0.19583 -0.0031,-0.24974 0.01279,-0.43148 3.43e-4,-0.0043 0.01104,-0.147278 0.03247,-0.178041 0.0065,-0.0094 0.0085,0.03513 -0.0027,0.03422 -0.163998,-0.01344 -0.325335,-0.04959 -0.488002,-0.07438 -0.0057,0.0097 -0.01227,0.01874 -0.01673,0.02897 -0.09744,0.224005 0.0051,0.02883 -0.150112,0.341219 -0.201708,0.405973 -0.437495,0.789992 -0.675197,1.175492 -0.365679,0.561157 -0.741414,1.116043 -1.132716,1.659709 -0.216893,0.30135 -0.55093,0.75502 -0.794693,1.043344 -0.1182051,0.139817 -0.2467818,0.270522 -0.3701723,0.405782 -0.2539005,0.238799 -0.3580196,0.355066 -0.632237,0.550128 -0.077237,0.05494 -0.1566276,0.108163 -0.2420608,0.149221 -0.043819,0.02105 -0.1684628,0.07955 -0.2243333,0.0155 -0.00991,-0.01135 -5.485e-4,-0.03014 -8.914e-4,-0.04522 -0.014529,-0.06277 -0.041865,-0.175702 -0.046076,-0.228407 -0.015428,-0.193107 0.00309,-0.405222 0.030715,-0.593942 0.060151,-0.410983 0.111024,-0.559165 0.2179554,-0.976576 0.3064972,-1.021853 0.7170653,-2.016376 1.2369194,-2.948907 0.08972,-0.160947 0.188535,-0.316658 0.282803,-0.474988 0.208067,-0.333515 0.438066,-0.652182 0.681941,-0.960172 0.09679,-0.122232 0.195001,-0.2404 0.303464,-0.352182 0.18976,-0.138274 0.09082,-0.113405 -0.294768,-0.442424 -0.0197,-0.0168 -0.04226,0.03003 -0.06441,0.04343 -0.133843,0.08102 -0.214025,0.119236 -0.361015,0.196043 -0.6989734,0.355501 -1.4694256,0.504828 -2.234722,0.63918 -0.6042386,0.08662 -1.2117815,0.181167 -1.8233313,0.19607 -0.0803,0.0021 -0.1606422,-0.0014 -0.2409641,-0.0021 -0.1499317,-0.02331 -0.3203453,-0.04755 -0.4338285,-0.16175 -0.073821,-0.07429 -0.073562,-0.166994 -0.073148,-0.26217 0.042146,-0.267761 0.1988153,-0.492665 0.3635942,-0.700799 0.1984856,-0.250725 0.2669916,-0.312899 0.4907334,-0.550714 0.3759297,-0.386223 0.8114163,-0.709753 1.2820112,-0.971529 0.2733799,-0.152073 0.3659683,-0.185222 0.6468656,-0.308641 0.3954293,-0.154967 0.8041683,-0.280961 1.2298709,-0.305961 0.1499059,-0.01968 0.3010126,0.01076 0.4496206,-0.01526 0.216462,-0.11792 0.222108,-0.0668 0.1979,-0.424151 -0.0018,-0.02702 -0.127076,-0.162865 -0.146401,-0.184573 -0.150616,-0.169195 -0.03703,-0.03975 -0.207082,-0.235339 C 9.9396483,10.450352 9.7662079,10.233431 9.5977216,10.012618 9.5313303,9.9256082 9.461852,9.8407519 9.4004044,9.7501804 9.2405855,9.5146219 9.1818892,9.3841918 9.0497793,9.1312137 8.8684454,8.7303891 8.6988171,8.3098376 8.6899645,7.8633022 8.6849317,7.6091687 8.7118961,7.5373608 8.7593297,7.2930153 8.8445213,7.000614 8.9812946,6.7138044 9.2639034,6.5661261 c 0.049558,-0.025885 0.1028033,-0.047836 0.1581161,-0.056034 0.043878,-0.00651 0.088293,0.00864 0.1324408,0.012959 0.046304,0.018959 0.094976,0.032981 0.138914,0.056918 0.121248,0.066086 0.2482298,0.1728085 0.3484787,0.2633353 0.222187,0.200637 0.417474,0.4251079 0.613211,0.6508132 0.434519,0.5081335 0.770251,1.0869057 1.074145,1.6794566 0.151727,0.3190194 0.282422,0.6489275 0.378244,0.9892268 0.0496,0.176169 0.05577,0.222325 0.09126,0.397201 0.03975,0.125826 0.02673,0.299817 0.07413,0.423092 0.01189,0.03092 0.02343,0.06745 0.05154,0.08497 0.05739,0.03575 0.12775,0.04436 0.191625,0.06653 0,0 0.02004,3.43e-4 0.02004,3.43e-4 v 0 c 0.06482,-0.02828 0.140092,-0.03964 0.19445,-0.08488 0.03086,-0.02568 0.0356,-0.0731 0.0428,-0.112595 0.02712,-0.148895 -0.03129,-0.339155 -0.04485,-0.485996 -0.01491,-0.07221 -0.02784,-0.144858 -0.04473,-0.216635 C 12.577373,9.7825411 12.406883,9.347172 12.196272,8.9337035 12.066924,8.6821242 12.02598,8.5935582 11.87987,8.3467649 11.632532,7.9289938 11.349548,7.5337061 11.038142,7.1613374 10.823447,6.914544 10.608316,6.6681415 10.361037,6.4526048 10.208656,6.3197852 10.032592,6.1789534 9.8428471,6.101187 9.7466564,6.0617638 9.6419839,6.0475051 9.5415528,6.0206676 9.4382417,6.0287929 9.3322435,6.0203247 9.2316192,6.0450092 9.1377809,6.0681167 9.0494224,6.1126893 8.9664685,6.1622707 8.6890273,6.3280854 8.4915213,6.5869639 8.364258,6.8798554 8.3194512,6.9829749 8.2906235,7.0923272 8.2538063,7.1985629 c -0.057559,0.3180904 -0.08574,0.3824244 -0.076962,0.7114615 0.013796,0.5170953 0.1825544,1.0057281 0.4022271,1.46885 0.062157,0.1173164 0.1203343,0.2368271 0.1864709,0.3519492 0.2658567,0.4627584 0.5965934,0.8823364 0.9397931,1.2893114 0.040009,0.04649 0.07965,0.0933 0.1200268,0.139467 0.049055,0.0561 0.094438,0.115922 0.1490424,0.166631 0.00195,0.0017 0.00359,-0.0042 0.00425,-0.0068 0.084313,-0.333902 -0.020715,-0.242731 0.2012894,-0.347157 0.01538,-0.0031 0.02014,-0.0038 -0.03464,0.0017 -0.1207,0.01227 -0.2408579,0.02636 -0.362515,0.0276 -0.106728,0.0099 -0.2202975,0.01868 -0.3258148,0.03655 -0.3680038,0.06234 -0.7262764,0.179401 -1.0740331,0.312032 -0.3083495,0.135497 -0.4073683,0.170372 -0.7068685,0.338637 -0.511172,0.287187 -0.9824128,0.642448 -1.3924779,1.061902 -0.3731798,0.396282 -0.8523941,0.868122 -0.968537,1.423177 -0.017571,0.08397 -0.015596,0.170858 -0.023391,0.256283 0.038193,0.199396 0.03139,0.279966 0.1516879,0.450691 0.1990786,0.282531 0.5333911,0.371226 0.8572642,0.410993 0.092021,0.0049 0.1839213,0.01344 0.276064,0.01474 0.233498,0.0034 0.4221776,-0.01214 0.6562042,-0.03305 0.4150342,-0.03711 0.82862,-0.08974 1.2397221,-0.157809 0.1554844,-0.02674 0.311489,-0.05061 0.4664547,-0.0802 0.6640046,-0.126816 1.3218572,-0.30428 1.9272722,-0.611293 0.213271,-0.1142 0.225059,-0.114588 0.409919,-0.232484 0.02614,-0.01666 0.09024,-0.02537 0.07636,-0.05308 -0.07882,-0.157397 -0.200197,-0.290429 -0.315132,-0.42376 -0.0253,-0.02935 -0.07029,0.16096 -0.0799,0.08445 -0.393946,0.432376 -0.730859,0.912468 -1.049464,1.402095 -0.099915,0.165678 -0.2042875,0.328749 -0.2997434,0.497039 -0.4377515,0.771754 -0.8075688,1.613364 -1.0988522,2.451032 -0.070047,0.20144 -0.1285359,0.406711 -0.1928046,0.610067 -0.1255566,0.494989 -0.2548217,0.961857 -0.2643917,1.476913 -0.00381,0.204816 0.00964,0.439044 0.097406,0.630727 0.040505,0.08846 0.1070857,0.162474 0.1606288,0.243713 0.086004,0.05011 0.1626271,0.121877 0.2580113,0.150333 0.1915907,0.05715 0.3982612,-0.0017 0.5693705,-0.08403 0.1037438,-0.05001 0.1993999,-0.115949 0.293231,-0.182731 0.309685,-0.220405 0.4141932,-0.340131 0.6991033,-0.609912 0.13076,-0.144967 0.266464,-0.28562 0.392279,-0.4349 0.262834,-0.31184 0.577525,-0.738974 0.813579,-1.067003 0.207091,-0.287784 0.610868,-0.86898 0.810237,-1.166362 0.115637,-0.172486 0.227302,-0.347603 0.340953,-0.521402 0.227663,-0.371241 0.329038,-0.523352 0.528797,-0.896129 0.06084,-0.113531 0.118461,-0.228825 0.173449,-0.345305 0.08893,-0.188376 0.169765,-0.376948 0.190654,-0.585852 -0.162586,-0.04479 -0.320018,-0.116895 -0.487752,-0.134369 -0.02801,-0.0031 -0.01838,0.05343 -0.02379,0.08108 -0.0063,0.03219 -0.0083,0.06507 -0.01135,0.09773 -0.01927,0.207428 -0.0269,0.415964 -0.02618,0.62424 0.0027,0.116764 6.84e-4,0.233759 0.0086,0.35029 0.04439,0.653932 0.201117,1.307471 0.455374,1.911607 0.07468,0.177467 0.166366,0.347293 0.24955,0.520942 0.10013,0.161519 0.194492,0.326764 0.300396,0.484563 0.359945,0.536328 0.82765,1.10919 1.35993,1.484003 0.106119,0.07473 0.221543,0.135268 0.332315,0.202904 0.287091,0.103081 0.401061,0.186282 0.716206,0.131969 0.31746,-0.05471 0.565501,-0.319142 0.723461,-0.579996 0.05892,-0.0973 0.100476,-0.204107 0.150716,-0.30616 0.03374,-0.11411 0.07665,-0.225897 0.101206,-0.342326 0.106164,-0.503262 0.03854,-1.038243 -0.114751,-1.523814 -0.04578,-0.145028 -0.106548,-0.284897 -0.159822,-0.427343 -0.07061,-0.138918 -0.135981,-0.280628 -0.211831,-0.416759 -0.368008,-0.660502 -0.848323,-1.250091 -1.382399,-1.782717 -0.142844,-0.138895 -0.258917,-0.260504 -0.414401,-0.382153 -0.04472,-0.03499 -0.08438,-0.09611 -0.141148,-0.09535 -0.142888,0.0021 -0.315604,0.0014 -0.416183,0.102873 -0.122034,0.123169 0.07466,0.28079 0.142333,0.345884 0.658122,0.499923 1.400392,0.872411 2.154314,1.205231 0.43923,0.170117 0.647741,0.26629 1.106376,0.381938 0.350704,0.08843 0.75004,0.154545 1.113262,0.159125 0.421492,0.0053 0.555796,-0.04575 0.960399,-0.131078 0.329246,-0.13148 0.499432,-0.166466 0.770673,-0.401767 0.279044,-0.242076 0.455206,-0.605689 0.497663,-0.969391 0.01457,-0.124949 6.85e-4,-0.251593 0.001,-0.377388 -0.02835,-0.127533 -0.04321,-0.258834 -0.08505,-0.382596 -0.218843,-0.647281 -0.78725,-1.119088 -1.321594,-1.503292 -0.114186,-0.07254 -0.226322,-0.148415 -0.342558,-0.217627 -0.534364,-0.318196 -1.060124,-0.541286 -1.681391,-0.615895 -0.16135,-0.01265 -0.305072,-0.03051 -0.466262,-0.02026 -0.05745,0.0036 -0.160271,-0.03202 -0.170974,0.02455 -0.118568,0.62664 0.03987,0.491245 0.287107,0.389209 0.07281,-0.03329 0.145467,-0.06685 0.2184,-0.09983 0.09693,-0.04383 0.196832,-0.08146 0.291181,-0.130588 0.554581,-0.288761 1.045751,-0.685961 1.505263,-1.105584 0.130985,-0.132517 0.266657,-0.260561 0.392956,-0.397553 0.477549,-0.51797 0.910779,-1.100184 1.18888,-1.7517171 0.0602,-0.141017 0.102745,-0.2889284 0.15412,-0.4333909 0.04743,-0.3301754 0.108407,-0.4864591 0.0088,-0.8136724 -0.09711,-0.3189267 -0.379545,-0.5538715 -0.669613,-0.6895607 -0.105378,-0.049294 -0.219129,-0.078246 -0.32869,-0.1173713 -0.302529,-0.052108 -0.429559,-0.086996 -0.743024,-0.085782 -0.64699,0.0024 -1.228529,0.2037807 -1.804072,0.4844431 -0.16109,0.088285 -0.325694,0.1704464 -0.483277,0.2648543 -0.652964,0.3911941 -1.236854,0.8844038 -1.75661,1.4387486 -0.181783,0.2083134 -0.130458,0.143739 -0.287273,0.3434024 -0.01947,0.02479 -0.07845,0.05145 -0.05756,0.07507 0.107583,0.121646 0.250153,0.208351 0.386385,0.296742 0.04434,0.02876 -0.03897,-0.334311 0.0596,-0.146921 0.09897,-0.241188 0.20029,-0.4805898 0.27409,-0.7312263 0.121375,-0.4122035 0.195186,-0.8363823 0.236154,-1.2637974 0.012,-0.1621187 0.02856,-0.3239598 0.036,-0.4863494 0.02263,-0.4927605 0.0099,-0.9923401 -0.07305,-1.4796665 C 15.87633,6.2741429 15.846802,6.1224979 15.802014,5.9753716 15.760561,5.8392024 15.696837,5.7108362 15.644246,5.5785686 15.472178,5.3444431 15.423207,5.2094945 15.143586,5.0911084 14.805552,4.9479864 14.448728,5.060321 14.172704,5.2747506 c -0.102591,0.079703 -0.184341,0.1831041 -0.276514,0.274656 -0.08857,0.117049 -0.184016,0.2291988 -0.265714,0.3511436 -0.493107,0.7359883 -0.760941,1.5899205 -0.940215,2.4498419 -0.07248,0.4206682 -0.119045,0.623458 -0.147817,1.0441226 -0.02523,0.3687485 -7.2e-4,0.7406583 0.03414,1.1077743 0,0 0.396886,-0.0378 0.396886,-0.0378 z" />
    <path
       id="rect941"
       style="opacity:1;fill:#5b93f7;fill-opacity:1;stroke-width:0.34284;stroke-linecap:round"
       d="m 14.83908,5.4552525 c -0.01441,-6.857e-4 -0.02907,-6.857e-4 -0.04412,6.857e-4 -0.40882,0.065691 -0.651039,0.464459 -0.867943,0.7790044 -0.614392,1.0399571 -0.918085,2.2468156 -0.988417,3.4467933 0.01178,0.1969615 -0.04787,0.4188851 0.03224,0.6023701 0.11461,0.03264 0.246776,-0.04694 0.370634,-0.02568 0.438185,-0.03993 0.873974,0.02897 1.28907,0.166359 v 0.620973 h 0.943418 v -0.135533 c 0.553538,0.397325 1.033177,0.953538 1.111726,1.649606 0.112277,0.988822 -0.432175,1.944228 -1.146983,2.591781 -0.136759,0.123076 -0.290418,0.226544 -0.425556,0.351146 -0.0085,0.134099 0.202989,0.147226 0.283823,0.225891 0.993844,0.535146 2.025458,1.103671 3.168817,1.214483 0.635466,0.04419 1.382477,0.0021 1.837581,-0.505637 0.261496,-0.279041 0.245974,-0.68901 0.193644,-1.041037 -0.230378,-0.637062 -0.808326,-1.062482 -1.345764,-1.433816 -0.624405,-0.410396 -1.357851,-0.70556 -2.116088,-0.667214 -0.133004,-0.01131 -0.04077,-0.205765 -0.125435,-0.278506 -0.103957,-0.120967 0.136764,-0.145169 0.20268,-0.207641 1.041845,-0.514993 1.946641,-1.289339 2.647953,-2.212997 0.365972,-0.525745 0.745102,-1.0964163 0.812313,-1.7489985 C 20.697864,8.5092368 20.342904,8.3041773 20.068706,8.2013356 19.824196,8.116044 19.562536,8.0871048 19.304583,8.0925559 18.388301,8.118577 17.573674,8.6185547 16.83664,9.1176474 16.373976,9.4552728 15.958001,9.8556963 15.573968,10.280218 v -0.110905 h -0.56534 C 15.200379,9.5890251 15.403025,9.0059536 15.463241,8.3921432 15.555499,7.54863 15.569938,6.6640479 15.276507,5.8563478 15.199838,5.6709777 15.055187,5.4660621 14.83908,5.455417 Z M 9.4365361,6.488315 C 9.0191623,6.5618134 8.796256,7.0072205 8.7113897,7.3842519 8.5401134,8.1495085 8.8868548,8.9114704 9.2529905,9.5648308 9.5908133,10.08806 10.011827,10.550722 10.387571,11.04471 c 0.101155,0.125164 0.10884,0.353729 -0.07795,0.39898 -0.3309731,0.08522 -0.6848011,0.02605 -1.0153465,0.130575 -1.3141274,0.330902 -2.4929741,1.163636 -3.2781304,2.264196 -0.1397946,0.221128 -0.3375727,0.533998 -0.1706124,0.787867 0.3471245,0.295106 0.8331237,0.161036 1.2453105,0.150767 1.0243553,-0.09987 2.0558322,-0.250578 3.0327528,-0.580222 0.05752,-0.132772 -0.09641,-0.274317 -0.09142,-0.415104 -0.1198734,-0.411672 -0.076459,-0.85555 0.08717,-1.253813 0.176466,-0.468405 0.44405,-0.92958 0.856782,-1.222633 v 0.29906 h 0.65552 V 11.050908 C 11.811295,10.90396 11.997602,10.765282 12.203006,10.655473 12.238792,10.311032 12.069324,9.9655593 11.952668,9.6411881 11.488464,8.5105567 10.803807,7.4438752 9.8560686,6.6599922 9.7343642,6.5708984 9.5943038,6.4789795 9.4365361,6.488315 Z m 1.2265299,8.494648 c -0.01152,-0.0031 -0.02223,-0.0017 -0.03012,0.01611 -0.575594,0.796369 -0.9934169,1.69617 -1.3760596,2.59763 -0.3765479,0.990993 -0.7922345,2.038163 -0.6551658,3.118324 0.079205,0.175018 0.2841684,0.0079 0.392249,-0.04695 0.8599339,-0.622281 1.5004834,-1.491957 2.1107734,-2.348 0.522503,-0.747206 1.038182,-1.504386 1.476513,-2.304064 -0.03177,-0.134286 -0.25349,-0.09995 -0.358942,-0.162114 -0.573843,-0.146458 -1.075156,-0.48575 -1.524702,-0.862805 -0.01068,0.0017 -0.02303,-0.0051 -0.03455,-0.0081 z m 3.954201,0.802393 c -0.355794,0.09904 -0.715349,0.22524 -1.092238,0.214019 -0.26872,-0.08548 -0.249736,0.153503 -0.215436,0.340869 0.08903,1.251564 0.65942,2.432497 1.491219,3.359983 0.349799,0.370852 0.723881,0.787934 1.23344,0.925524 0.298812,0.02146 0.474842,-0.298001 0.583057,-0.532391 0.33323,-0.775983 0.04225,-1.650986 -0.341223,-2.349948 -0.408744,-0.724726 -0.956477,-1.367219 -1.562972,-1.932898 -0.02786,-0.0193 -0.06237,-0.02654 -0.09585,-0.02516 z" />
    <path
       style="fill:#ffff7e;fill-opacity:1;stroke-width:0.126249;stroke-linecap:round"
       d="m 13.553304,10.601065 c -0.261508,0.02297 -0.559864,0.04487 -0.773961,0.207857 -0.04327,0.1254 -0.09014,0.316715 -0.269838,0.276367 -0.150979,-0.05042 -0.316767,-0.05015 -0.438489,0.06929 -0.383229,0.311881 -0.71388,0.681751 -1.063111,1.029839 -0.14881,-0.172099 -0.268641,-0.04953 -0.308492,0.136519 -0.236282,0.455724 -0.357363,1.002999 -0.155702,1.494649 0.01234,0.123878 0.135857,0.177255 0.227105,0.08664 0.114799,-0.03669 0.239855,-0.222238 0.350086,-0.08814 0.09177,0.07398 0.19797,0.14847 0.266513,0.238064 -0.109962,0.179515 -0.321828,0.301981 -0.390601,0.500012 0.22459,0.292788 0.559453,0.497032 0.891395,0.654505 0.298629,0.117266 0.619028,0.282655 0.94672,0.232782 0.09169,-0.02856 0.01525,-0.215454 0.149729,-0.153709 0.110711,0.04018 0.278317,0.03281 0.348978,0.130612 0.0039,0.172749 0.235252,0.083 0.33906,0.08481 1.108533,-0.13612 2.062574,-0.97696 2.461847,-2.001481 0.223516,-0.56473 0.183966,-1.247574 -0.209055,-1.729683 -0.551819,-0.717935 -1.47139,-1.155666 -2.372184,-1.168934 z"
       id="path924" />
    <path
       style="fill:#010203;fill-opacity:1;stroke-width:0.34284;stroke-linecap:round"
       id="path845"
       d="m 11.021181,12.236874 c 0.03781,-0.04566 0.07401,-0.09272 0.113449,-0.136985 0.07537,-0.0846 0.357304,-0.379651 0.42174,-0.444584 0.217683,-0.219366 0.347133,-0.352409 0.608689,-0.529335 0.127472,-0.08623 0.26542,-0.155849 0.39813,-0.233773 0.350052,-0.136402 0.537708,-0.241499 0.922258,-0.261213 0.555795,-0.02849 1.12516,0.158869 1.600569,0.434362 0.158074,0.0916 0.298947,0.210106 0.448421,0.315159 0.260404,0.27134 0.43275,0.400525 0.58649,0.747528 0.10928,0.246663 0.148837,0.563879 0.123254,0.830485 -0.0362,0.377216 -0.132504,0.525696 -0.280535,0.872082 -0.0964,0.146615 -0.181788,0.301106 -0.28921,0.439849 -0.343755,0.443975 -0.78208,0.809127 -1.304877,1.02332 -0.171526,0.07028 -0.349834,0.128534 -0.532416,0.160517 -0.194058,0.03401 -0.393289,0.02407 -0.589935,0.03609 -0.504211,-0.05926 -0.748366,-0.05343 -1.225181,-0.247365 -0.529913,-0.215529 -1.01954,-0.598101 -1.307844,-1.098088 -0.08514,-0.147645 -0.130456,-0.31491 -0.195684,-0.472366 -0.01755,-0.163082 -0.06205,-0.325491 -0.05266,-0.489249 0.02106,-0.367141 0.184559,-0.723657 0.347754,-1.04295 0.09182,-0.179641 0.209386,-0.34524 0.302593,-0.524161 0.09472,-0.181818 0.173769,-0.371378 0.260654,-0.557067 0,0 -0.01486,-0.01344 -0.01486,-0.01344 v 0 c -0.187613,0.117388 -0.398071,0.204415 -0.562844,0.352161 -0.170085,0.152513 -0.305747,0.342388 -0.427389,0.535753 -0.239583,0.380854 -0.4313159,0.863397 -0.4469596,1.320136 -0.00732,0.213682 0.062409,0.423037 0.093614,0.634553 0.08752,0.196645 0.151223,0.405723 0.262555,0.589935 0.360604,0.596658 0.947056,1.04403 1.590657,1.296407 0.550981,0.216058 0.832819,0.206881 1.414882,0.269771 0.239703,-0.01893 0.483127,-0.01063 0.719117,-0.05675 0.844148,-0.164927 1.617546,-0.749501 2.118857,-1.43182 0.123567,-0.168188 0.218605,-0.355577 0.32791,-0.533367 0.164299,-0.450941 0.260798,-0.605147 0.279918,-1.089823 0.01498,-0.379715 -0.04851,-0.72065 -0.221955,-1.061028 -0.201734,-0.395911 -0.412464,-0.546904 -0.727805,-0.851888 -0.171821,-0.115884 -0.334156,-0.24725 -0.515456,-0.347657 -0.559224,-0.309711 -1.218663,-0.503803 -1.863037,-0.459344 -0.440337,0.03038 -0.658784,0.155049 -1.056785,0.316695 -0.147355,0.08877 -0.300406,0.168712 -0.442065,0.266315 -0.46892,0.323079 -0.833937,0.762047 -1.183267,1.20525 0,0 0.299253,0.235898 0.299253,0.235898 z" />
  </g>
</svg>
