<?xml version="1.0" encoding="UTF-8" standalone="no"?>
<svg
   xmlns:dc="http://purl.org/dc/elements/1.1/"
   xmlns:cc="http://creativecommons.org/ns#"
   xmlns:rdf="http://www.w3.org/1999/02/22-rdf-syntax-ns#"
   xmlns:svg="http://www.w3.org/2000/svg"
   xmlns="http://www.w3.org/2000/svg"
   xmlns:sodipodi="http://sodipodi.sourceforge.net/DTD/sodipodi-0.dtd"
   xmlns:inkscape="http://www.inkscape.org/namespaces/inkscape"
   width="100"
   height="100"
   viewBox="0 0 26.458333 26.458334"
   version="1.1"
   id="svg8"
   sodipodi:docname="logo.svg"
   inkscape:version="1.0.2 (1.0.2+r75+1)">
  <defs
     id="defs2" />
  <sodipodi:namedview
     id="base"
     pagecolor="#ffffff"
     bordercolor="#666666"
     borderopacity="1.0"
     inkscape:pageopacity="0.0"
     inkscape:pageshadow="2"
     inkscape:zoom="1.3577805"
     inkscape:cx="400"
     inkscape:cy="94.973808"
     inkscape:document-units="mm"
     inkscape:current-layer="layer1"
     inkscape:document-rotation="0"
     showgrid="false"
     inkscape:window-width="1920"
     inkscape:window-height="963"
     inkscape:window-x="0"
     inkscape:window-y="31"
     inkscape:window-maximized="1"
     units="px" />
  <metadata
     id="metadata5">
    <rdf:RDF>
      <cc:Work
         rdf:about="">
        <dc:format>image/svg+xml</dc:format>
        <dc:type
           rdf:resource="http://purl.org/dc/dcmitype/StillImage" />
        <dc:title></dc:title>
      </cc:Work>
    </rdf:RDF>
  </metadata>
  <g
     inkscape:label="Layer 1"
     inkscape:groupmode="layer"
     id="layer1">
    <path
       style="opacity:1;fill:#010203;fill-opacity:1;stroke-width:0.457121;stroke-linecap:round"
       id="path847"
       d="m 12.888178,9.6312588 c -0.05037,-0.6771335 -0.0086,-1.359213 0.08854,-2.0306051 0.03328,-0.2301788 0.07881,-0.4584193 0.118216,-0.687629 0.192201,-0.8790759 0.443435,-1.7564604 0.875995,-2.5508911 0.250594,-0.4602341 0.319468,-0.5189285 0.627197,-0.9182421 0.104229,-0.099044 0.196114,-0.2129635 0.312685,-0.2971332 0.202473,-0.1461919 0.489586,-0.2259779 0.712542,-0.076138 0.154237,0.1036567 0.211542,0.2462922 0.304827,0.4017043 0.04219,0.1313811 0.09267,0.2603716 0.126512,0.3941389 0.190711,0.7537973 0.217883,1.5659369 0.177651,2.339011 -0.0106,0.2039857 -0.03337,0.4071578 -0.05006,0.6107321 -0.105732,0.8426753 -0.325063,1.6718427 -0.639956,2.4603994 -0.149913,0.3488474 -0.206074,0.3394673 0.532642,0.4847724 0.05405,0.010651 0.06431,-0.089545 0.0992,-0.132172 0.04489,-0.054864 0.336012,-0.3839634 0.361793,-0.41321 C 17.19254,8.527229 17.920972,7.9052655 18.735411,7.4097096 18.93041,7.2910593 19.133893,7.1869545 19.333133,7.075577 19.764994,6.8788641 20.012114,6.7429711 20.46715,6.62225 c 0.315382,-0.083671 0.664558,-0.1231119 0.991043,-0.1204469 0.394592,0.0032 0.449771,0.036113 0.822151,0.1211554 0.109074,0.044707 0.222741,0.079567 0.327226,0.1341651 0.22478,0.1174527 0.4737,0.3162866 0.51592,0.5868337 0.03204,0.2053617 -0.05759,0.4689057 -0.102198,0.6543232 -0.329964,0.9750027 -0.936532,1.8190677 -1.630803,2.5684855 -0.158113,0.170671 -0.326617,0.331413 -0.489928,0.497119 -0.436839,0.427025 -0.914777,0.805836 -1.433025,1.128834 -0.135811,0.08465 -0.277591,0.15932 -0.415486,0.240523 -0.470858,0.277271 -0.180545,0.126421 -0.601069,0.330928 -0.361583,0.157419 -0.37259,0.06345 0.05622,0.677861 0.02391,0.03424 0.08357,-3.62e-4 0.125348,6.8e-5 0.297348,0.0027 0.167736,-0.0023 0.504648,0.03241 0.288553,0.04939 0.425716,0.06216 0.71021,0.157455 0.440158,0.147449 0.862286,0.368472 1.258624,0.60735 0.143422,0.08644 0.281856,0.180901 0.422782,0.271351 0.519057,0.369459 1.026904,0.789974 1.336832,1.358989 0.0627,0.115122 0.119871,0.234842 0.157035,0.360555 0.03424,0.115798 0.03694,0.238667 0.0554,0.357999 -0.0069,0.116748 -0.0014,0.234919 -0.0208,0.350246 -0.0542,0.321406 -0.219482,0.637844 -0.478277,0.842095 -0.252715,0.199451 -0.449597,0.2397 -0.753473,0.349738 -0.456677,0.09071 -0.594979,0.142083 -1.073905,0.134984 -0.680795,-0.0101 -1.351872,-0.174973 -1.99175,-0.396708 -0.228871,-0.07931 -0.451293,-0.176138 -0.676941,-0.264203 -0.622151,-0.264156 -1.218763,-0.581741 -1.808335,-0.910772 -0.214422,-0.119665 -0.529675,-0.293998 -0.741839,-0.438137 -0.06111,-0.04151 -0.116488,-0.0909 -0.17473,-0.136355 -0.16561,-0.182098 0.116374,0.110724 0.03383,0.255216 -0.07564,0.132354 -0.29349,0.116579 -0.395208,0.230123 -0.03136,0.03497 0.06802,0.06478 0.10191,0.09728 0.275955,0.264696 0.162443,0.154918 0.478734,0.469363 0.668462,0.669303 1.271085,1.40972 1.723397,2.243838 0.09009,0.166136 0.165537,0.33981 0.248303,0.509713 0.06023,0.166031 0.12942,0.329082 0.180709,0.498088 0.162219,0.534549 0.241246,1.132285 0.11104,1.683289 -0.02725,0.115195 -0.07492,0.22457 -0.112374,0.336853 -0.05134,0.09966 -0.09392,0.204338 -0.154023,0.298966 -0.115971,0.182616 -0.313521,0.419752 -0.558053,0.417973 -0.116721,-9.14e-4 -0.366876,-0.132674 -0.444413,-0.16806 -0.107922,-0.07009 -0.220218,-0.133882 -0.323775,-0.21028 -0.631974,-0.466241 -1.183811,-1.138835 -1.619735,-1.785881 -0.131596,-0.195328 -0.247805,-0.400594 -0.371708,-0.60089 -0.422622,-0.757519 -0.698371,-1.577676 -0.829126,-2.433942 -0.05719,-0.374501 -0.06235,-0.562382 -0.08626,-0.928541 0.0018,-0.261107 -0.0041,-0.332989 0.01705,-0.575309 4.58e-4,-0.0057 0.01472,-0.19637 0.04329,-0.237388 0.0087,-0.01253 0.01134,0.04685 -0.0037,0.04562 -0.218664,-0.01792 -0.433781,-0.06612 -0.650671,-0.09918 -0.0075,0.01289 -0.01637,0.025 -0.02231,0.03863 -0.129914,0.298674 0.0068,0.03844 -0.20015,0.454959 -0.268945,0.5413 -0.583328,1.053326 -0.900265,1.567327 -0.487573,0.748211 -0.988555,1.488062 -1.510292,2.212951 -0.2891916,0.4018 -0.7345752,1.006695 -1.0595938,1.391129 -0.1576067,0.186423 -0.3290426,0.360696 -0.4935637,0.541044 -0.3385348,0.318398 -0.4773606,0.473422 -0.8429848,0.733505 -0.1029835,0.07326 -0.2088372,0.144218 -0.3227485,0.198962 -0.058425,0.02807 -0.2246175,0.106071 -0.2991117,0.02066 -0.013215,-0.01513 -7.314e-4,-0.04018 -0.00119,-0.0603 -0.019373,-0.08369 -0.05582,-0.23427 -0.061434,-0.304543 -0.020571,-0.257478 0.00411,-0.540299 0.040953,-0.791925 0.080201,-0.547979 0.1480323,-0.745556 0.2906079,-1.302105 0.408664,-1.362473 0.9560894,-2.688508 1.6492294,-3.931886 0.1196318,-0.214596 0.2513814,-0.422211 0.3770719,-0.633319 0.2774236,-0.444687 0.5840897,-0.869577 0.9092573,-1.280231 0.129049,-0.162978 0.260002,-0.320534 0.404619,-0.469578 0.253015,-0.184366 0.121097,-0.151207 -0.393025,-0.589901 -0.02627,-0.0224 -0.05635,0.04004 -0.08588,0.05791 -0.178457,0.108027 -0.2853666,0.158982 -0.4813545,0.261391 -0.9319662,0.474003 -1.9592384,0.673106 -2.979636,0.852243 -0.8056536,0.115491 -1.6157128,0.241556 -2.4311145,0.261427 -0.1070664,0.0027 -0.21419,-0.0018 -0.3212862,-0.0027 -0.1998644,-0.03112 -0.4270832,-0.06344 -0.5783944,-0.215711 -0.098429,-0.09905 -0.098082,-0.222659 -0.09753,-0.34956 0.056194,-0.357016 0.2650873,-0.656888 0.4847929,-0.934401 0.2646855,-0.334334 0.356027,-0.417233 0.6543501,-0.73432 0.5012408,-0.514965 1.0818911,-0.946341 1.7093524,-1.295376 0.3645075,-0.202765 0.487959,-0.246964 0.8624897,-0.411523 0.5272403,-0.206623 1.0722269,-0.374615 1.6398319,-0.407949 0.1998749,-0.02624 0.4013514,0.01435 0.5994961,-0.02034 0.2886162,-0.157226 0.2961436,-0.08907 0.2638667,-0.565536 C 9.5488785,10.420858 9.3818656,10.239728 9.3560995,10.210783 9.1552771,9.9851894 9.3067314,10.157789 9.0799892,9.896997 8.8431585,9.6122928 8.6119041,9.3230632 8.3872551,9.0286452 8.2987332,8.9126324 8.2060953,8.7994904 8.124165,8.6787281 7.9110725,8.3646493 7.8328107,8.1907422 7.6566636,7.8534371 7.4148845,7.3190031 7.1887129,6.7582664 7.1769095,6.1628844 7.170199,5.8240388 7.2061516,5.7282948 7.2693966,5.4025 7.3829857,5.0126306 7.5653505,4.6302168 7.9421632,4.4333119 8.0082409,4.3987992 8.0792346,4.3695298 8.1529851,4.3586 c 0.058504,-0.00869 0.1177247,0.01152 0.1765882,0.017279 0.06174,0.025279 0.1266349,0.043975 0.1852191,0.075891 0.1616645,0.088115 0.3309739,0.2304119 0.4646393,0.3511147 0.2962502,0.2675165 0.5566337,0.5668119 0.8176174,0.867753 0.5793589,0.6775129 1.0270039,1.4492111 1.4321959,2.2392809 0.202303,0.4253603 0.376564,0.8652388 0.504328,1.3189726 0.06614,0.2348917 0.07435,0.2964339 0.121673,0.5296023 0.05301,0.167768 0.03565,0.3997565 0.09883,0.5641245 0.01585,0.04123 0.03124,0.08993 0.06872,0.113288 0.07652,0.04767 0.170333,0.05914 0.2555,0.08871 0,0 0.02672,4.57e-4 0.02672,4.57e-4 v 0 c 0.08642,-0.03771 0.18679,-0.05285 0.259266,-0.113169 0.04114,-0.03424 0.04747,-0.09746 0.05706,-0.150127 0.03616,-0.198528 -0.04173,-0.4522074 -0.0598,-0.647997 C 12.541652,9.5175 12.524422,9.4206357 12.501902,9.3249328 12.360134,8.7218758 12.132813,8.1413823 11.851998,7.5900896 11.679534,7.2546496 11.624942,7.1365615 11.430127,6.8075029 11.100343,6.2504734 10.723029,5.7234219 10.30782,5.226929 10.02156,4.8978703 9.7347174,4.5693328 9.4050119,4.2819499 9.2018362,4.1048567 8.9670835,3.9170804 8.7140899,3.8133917 8.5858354,3.7608273 8.4462718,3.7418156 8.3123632,3.7060322 8.1746147,3.716866 8.0332834,3.7055751 7.8991174,3.7384878 7.7739993,3.7692978 7.6561878,3.8287281 7.5455823,3.8948369 7.1756598,4.1159236 6.9123178,4.4610957 6.7426331,4.8516188 6.6828905,4.9891117 6.6444535,5.1349151 6.5953637,5.2765632 6.5186181,5.7006847 6.4810428,5.7864635 6.4927478,6.2251809 c 0.018395,0.689462 0.2434065,1.3409739 0.5363041,1.9584713 0.082876,0.1564223 0.1604463,0.3157702 0.2486286,0.4692669 0.3544764,0.6170129 0.7954598,1.1764514 1.2530604,1.7190859 0.053345,0.06199 0.1062006,0.124397 0.1600362,0.185957 0.065407,0.0748 0.1259177,0.154562 0.1987238,0.222175 0.00261,0.0023 0.00479,-0.0056 0.00567,-0.0091 0.1124175,-0.445204 -0.027619,-0.323642 0.2683868,-0.462877 0.020511,-0.0041 0.026856,-0.005 -0.046183,0.0023 -0.1609339,0.01636 -0.3211447,0.03515 -0.4833546,0.0368 -0.1423059,0.01321 -0.2937323,0.02491 -0.4344223,0.04874 -0.4906793,0.08312 -0.9683772,0.239202 -1.4320539,0.416044 -0.4111338,0.180663 -0.5431591,0.227162 -0.9424937,0.451517 -0.6815643,0.382916 -1.3098869,0.856599 -1.8566417,1.415873 -0.4975744,0.528377 -1.1365282,1.157499 -1.2913858,1.897574 -0.023427,0.111953 -0.020794,0.227811 -0.031189,0.341711 0.050923,0.265862 0.041854,0.37329 0.202251,0.600923 0.2654388,0.376709 0.7111899,0.49497 1.1430217,0.547992 0.1226954,0.0065 0.245229,0.01792 0.3680862,0.01966 0.3113315,0.0046 0.5629049,-0.01618 0.8749412,-0.04407 0.5533803,-0.04948 1.1048293,-0.119652 1.6529668,-0.210413 0.2073131,-0.03566 0.4153197,-0.06747 0.6219412,-0.106935 0.8853416,-0.169089 1.7624802,-0.405708 2.5697022,-0.81506 0.284363,-0.152267 0.30008,-0.152784 0.546561,-0.309979 0.03485,-0.02222 0.120322,-0.03383 0.101816,-0.07078 -0.105088,-0.209865 -0.26693,-0.387241 -0.420177,-0.565016 -0.03374,-0.03913 -0.09372,0.214614 -0.106529,0.112608 -0.5252624,0.576502 -0.9744812,1.216627 -1.3992893,1.869465 -0.1332202,0.220904 -0.2723839,0.438333 -0.3996587,0.66272 -0.5836701,1.029007 -1.0767611,2.151157 -1.4651399,3.268051 -0.093395,0.268586 -0.1713816,0.542282 -0.2570735,0.813424 -0.1674092,0.659987 -0.339763,1.28248 -0.3525231,1.969223 -0.00507,0.273088 0.01285,0.585393 0.129875,0.84097 0.054007,0.117955 0.1427813,0.216634 0.2141722,0.324953 0.114672,0.06681 0.2168367,0.162502 0.3440161,0.200443 0.2554548,0.0762 0.5310161,-0.0023 0.7591625,-0.112049 0.1383253,-0.06668 0.2658671,-0.154598 0.3909756,-0.243641 0.4129143,-0.293874 0.552259,-0.45351 0.9321404,-0.813218 0.1743469,-0.19329 0.3552855,-0.380828 0.5230398,-0.579868 0.3504464,-0.415788 0.7700349,-0.985301 1.0847739,-1.422675 0.276122,-0.383712 0.814493,-1.158642 1.08032,-1.555153 0.154183,-0.229982 0.303069,-0.463471 0.454604,-0.695204 0.303553,-0.494989 0.438719,-0.697804 0.705065,-1.194841 0.08112,-0.151376 0.157949,-0.305101 0.231267,-0.460408 0.118573,-0.25117 0.226353,-0.5026 0.254205,-0.781138 -0.216781,-0.05972 -0.426691,-0.15586 -0.650337,-0.179159 -0.03735,-0.0041 -0.0245,0.07125 -0.03172,0.1081 -0.0085,0.04292 -0.01106,0.08677 -0.01513,0.130311 -0.02569,0.276572 -0.03588,0.554621 -0.03492,0.832322 0.0037,0.155686 9.14e-4,0.311679 0.01138,0.467054 0.05919,0.871913 0.268157,1.7433 0.607167,2.548816 0.09958,0.236624 0.221822,0.463059 0.332734,0.694591 0.133506,0.215359 0.259324,0.435687 0.400529,0.646086 0.479927,0.715106 1.103536,1.478924 1.813244,1.978676 0.141493,0.09963 0.295392,0.180357 0.443088,0.270538 0.382788,0.137443 0.534749,0.248377 0.954944,0.17596 0.42328,-0.07295 0.754003,-0.425525 0.964617,-0.77333 0.07856,-0.129731 0.133968,-0.272143 0.200955,-0.408214 0.04498,-0.152148 0.102194,-0.301197 0.134942,-0.456436 0.141552,-0.671017 0.05138,-1.384327 -0.153003,-2.031757 -0.06104,-0.193371 -0.142064,-0.379863 -0.213096,-0.569792 -0.09415,-0.185225 -0.181308,-0.374172 -0.282442,-0.555681 -0.490678,-0.880671 -1.1311,-1.666791 -1.843203,-2.376961 -0.19046,-0.185194 -0.345223,-0.347339 -0.552536,-0.509539 -0.05962,-0.04665 -0.112498,-0.12815 -0.188197,-0.127126 -0.190519,0.0027 -0.420807,0.0018 -0.554913,0.137164 -0.162712,0.164225 0.09955,0.374387 0.189778,0.46118 0.877499,0.666565 1.867194,1.163218 2.872426,1.606978 0.585641,0.226823 0.863657,0.355055 1.475171,0.509251 0.467607,0.11791 1.000057,0.206061 1.484354,0.212168 0.56199,0.0071 0.741062,-0.06099 1.280534,-0.174771 0.438996,-0.175306 0.665911,-0.221955 1.027567,-0.535691 0.37206,-0.322769 0.606942,-0.807587 0.663552,-1.292524 0.01943,-0.166598 9.14e-4,-0.335458 0.0014,-0.503185 -0.0378,-0.170044 -0.05761,-0.345113 -0.113403,-0.510129 -0.29179,-0.863044 -1.049669,-1.492121 -1.762129,-2.004394 -0.152248,-0.09672 -0.301764,-0.197887 -0.456746,-0.290171 -0.712487,-0.424263 -1.413501,-0.721716 -2.241859,-0.821195 -0.215135,-0.01687 -0.406765,-0.04068 -0.621685,-0.02702 -0.07661,0.0048 -0.213695,-0.0427 -0.227966,0.03273 -0.158091,0.835521 0.05317,0.654995 0.382811,0.518947 0.09707,-0.04439 0.193957,-0.08913 0.2912,-0.133109 0.129238,-0.05843 0.262443,-0.108612 0.388242,-0.174118 0.739444,-0.385015 1.394339,-0.914617 2.007023,-1.474115 0.174647,-0.176691 0.355544,-0.347416 0.523943,-0.530073 0.636733,-0.690628 1.214374,-1.4669152 1.585177,-2.3356282 0.08026,-0.188023 0.136994,-0.3852388 0.205494,-0.5778559 0.06323,-0.440235 0.144542,-0.6486137 0.01175,-1.0848992 C 23.611618,6.6174731 23.235037,6.3042125 22.84828,6.1232932 22.707775,6.0575683 22.556107,6.0189644 22.410025,5.9667978 22.006652,5.8973199 21.837279,5.8508033 21.419324,5.8524215 c -0.862656,0.0032 -1.638043,0.2717082 -2.405435,0.6459258 -0.214787,0.1177133 -0.43426,0.2272623 -0.644371,0.3531398 -0.87062,0.5215934 -1.649143,1.1792079 -2.342152,1.9183361 -0.242379,0.2777514 -0.173944,0.1916526 -0.383031,0.4578708 -0.02596,0.03305 -0.104594,0.068605 -0.07674,0.1000958 0.143444,0.1621957 0.333538,0.2778016 0.51518,0.3956566 0.05912,0.038352 -0.05195,-0.4457479 0.07946,-0.1958947 0.131957,-0.3215847 0.267054,-0.6407878 0.365454,-0.9749707 0.161835,-0.5496059 0.260248,-1.115179 0.314874,-1.6850673 0.016,-0.2161588 0.03808,-0.4319474 0.048,-0.6484674 0.03017,-0.6570156 0.01317,-1.3231233 -0.09739,-1.9728935 -0.03442,-0.2021527 -0.07379,-0.4043465 -0.133508,-0.6005154 -0.05527,-0.1815594 -0.140235,-0.3527147 -0.210358,-0.529072 -0.229424,-0.312168 -0.294719,-0.4921 -0.667547,-0.6499485 -0.450713,-0.1908298 -0.92648,-0.04105 -1.294513,0.2448569 -0.136788,0.1062715 -0.245789,0.2441393 -0.368686,0.3662089 -0.118097,0.1560657 -0.245355,0.3055992 -0.354287,0.4681926 -0.657477,0.9813201 -1.01459,2.1198991 -1.253622,3.2664639 -0.09664,0.5608922 -0.158728,0.8312793 -0.197091,1.3921669 -0.03363,0.4916658 -9.6e-4,0.9875461 0.04552,1.477036 0,0 0.529184,-0.050398 0.529184,-0.050398 z" />
    <path
       id="rect941"
       style="opacity:1;fill:#433eba;fill-opacity:1;stroke-width:0.457121;stroke-linecap:round"
       d="m 15.375751,2.9521435 c -0.01921,-9.142e-4 -0.03876,-9.142e-4 -0.05882,9.143e-4 -0.545095,0.087589 -0.868056,0.6192802 -1.157261,1.0386751 -0.819192,1.3866129 -1.224116,2.9957614 -1.317893,4.5957356 0.01571,0.262616 -0.06383,0.5585151 0.04299,0.8031617 0.152813,0.043518 0.329034,-0.062589 0.494179,-0.034238 0.584248,-0.053236 1.165301,0.038627 1.718765,0.2218134 v 0.8279654 h 1.257893 v -0.18071 c 0.738053,0.529767 1.377573,1.271387 1.482304,2.19948 0.149703,1.318433 -0.576234,2.592311 -1.529313,3.455716 -0.182347,0.164102 -0.387226,0.302061 -0.56741,0.468197 -0.01131,0.178799 0.270653,0.196302 0.378431,0.301188 1.325129,0.71353 2.700619,1.471565 4.2251,1.619315 0.847291,0.05891 1.843308,0.0027 2.450115,-0.674185 0.348661,-0.372055 0.327966,-0.918681 0.258192,-1.388052 -0.307172,-0.849418 -1.077771,-1.416646 -1.794357,-1.911759 -0.832541,-0.547196 -1.810472,-0.94075 -2.821457,-0.889621 -0.177339,-0.01509 -0.05436,-0.274355 -0.167247,-0.371343 -0.13861,-0.16129 0.182352,-0.193558 0.27024,-0.276855 1.38912,-0.68666 2.595518,-1.719123 3.530602,-2.950671 0.487965,-0.7009952 0.993472,-1.4618916 1.083087,-2.3320033 0.03359,-0.4507351 -0.43969,-0.7241484 -0.805288,-0.861271 -0.326014,-0.1137226 -0.674896,-0.1523082 -1.018834,-0.14504 -1.221712,0.034695 -2.307884,0.7013335 -3.290598,1.3667921 -0.616887,0.4501683 -1.171522,0.9840675 -1.683567,1.5500977 V 9.2375724 H 15.601816 C 15.857483,8.4638538 16.127679,7.6864233 16.207967,6.8680074 16.330978,5.7433204 16.35023,4.5638748 15.958987,3.4869386 15.856762,3.2397778 15.663894,2.9665565 15.37575,2.9523629 Z M 8.1723406,4.3295637 c -0.5564997,0.097998 -0.8537089,0.6918756 -0.9668642,1.1945854 -0.228369,1.0203446 0.2339541,2.0362962 0.7221362,2.9074456 0.4504315,0.69764 1.0117849,1.3145249 1.5127773,1.9731773 0.1348736,0.166885 0.1451213,0.471639 -0.1039379,0.531974 -0.4412992,0.113622 -0.913071,0.03474 -1.3537993,0.1741 -1.7521742,0.441204 -3.3239736,1.551519 -4.3708512,3.018937 -0.1863933,0.294838 -0.450098,0.711998 -0.2274837,1.050492 0.4628337,0.393476 1.1108343,0.214714 1.6604181,0.201023 C 6.4105462,15.248134 7.785852,15.047193 9.0884158,14.607667 9.1651043,14.430637 8.9598702,14.24191 8.9665245,14.054193 8.8066935,13.505296 8.8645796,12.913457 9.0827471,12.382438 9.3180355,11.757896 9.6748144,11.142995 10.225125,10.752257 v 0.398747 h 0.874029 V 10.413036 C 11.338693,10.217105 11.587104,10.0322 11.860976,9.8857884 11.90869,9.4265325 11.682734,8.9659007 11.527192,8.5334047 10.908251,7.0258925 9.9953729,5.603647 8.7317187,4.5584671 8.5694458,4.439675 8.3826981,4.3171163 8.1723406,4.3295637 Z M 9.8077178,15.65579 c -0.015359,-0.0041 -0.02964,-0.0023 -0.040158,0.02149 -0.7674611,1.061828 -1.3245591,2.261566 -1.8347506,3.463515 -0.5020652,1.321327 -1.0563153,2.717558 -0.8735565,4.157777 0.105607,0.233356 0.378892,0.01051 0.5229999,-0.0626 1.1465813,-0.829711 2.0006495,-1.989281 2.8143714,-3.130676 0.696673,-0.996277 1.384246,-2.005852 1.968689,-3.072091 -0.04235,-0.179049 -0.337988,-0.133264 -0.47859,-0.216153 -0.765126,-0.195278 -1.433546,-0.647668 -2.0329416,-1.15041 -0.014244,0.0023 -0.030705,-0.0069 -0.046064,-0.01088 z m 5.2722812,1.06986 c -0.474393,0.132058 -0.953801,0.30032 -1.456321,0.285358 -0.358294,-0.113974 -0.332982,0.204672 -0.287248,0.454493 0.118711,1.668757 0.879229,3.243338 1.988296,4.479988 0.466401,0.494472 0.965177,1.050583 1.644591,1.234035 0.398417,0.02862 0.633125,-0.397335 0.777412,-0.709855 0.444307,-1.034647 0.05633,-2.201321 -0.454966,-3.133272 -0.544993,-0.966304 -1.275306,-1.822963 -2.083967,-2.577203 -0.03714,-0.02574 -0.08315,-0.03538 -0.127797,-0.03355 z" />
    <path
       style="fill:#b8ba3e;fill-opacity:1;stroke-width:0.168333;stroke-linecap:round"
       d="m 13.661378,9.8132433 c -0.348678,0.030627 -0.746487,0.059832 -1.03195,0.2771437 -0.05769,0.167201 -0.120184,0.422288 -0.359786,0.36849 -0.201306,-0.06723 -0.422356,-0.06687 -0.584652,0.09238 -0.510974,0.415842 -0.951843,0.909003 -1.417486,1.373122 -0.198414,-0.229465 -0.3581883,-0.06603 -0.4113227,0.182026 -0.3150442,0.607633 -0.4764861,1.337335 -0.2076038,1.99287 0.016461,0.165171 0.1811429,0.23634 0.302808,0.115523 0.1530655,-0.04893 0.3198075,-0.296319 0.4667825,-0.117521 0.122363,0.09864 0.26396,0.197961 0.355351,0.31742 -0.146617,0.239354 -0.429105,0.402642 -0.520803,0.666684 0.299455,0.390386 0.74594,0.662711 1.18853,0.872676 0.398172,0.156354 0.825372,0.376874 1.262297,0.310376 0.122249,-0.03808 0.02033,-0.287273 0.199639,-0.204945 0.147615,0.05358 0.37109,0.04375 0.465305,0.174149 0.0052,0.230334 0.31367,0.11066 0.452081,0.113087 1.478048,-0.181495 2.750105,-1.302617 3.282471,-2.66865 0.298022,-0.752974 0.245288,-1.663436 -0.278741,-2.306249 -0.73576,-0.957248 -1.961857,-1.5408912 -3.16292,-1.5585817 z"
       id="path924" />
    <path
       style="fill:#010203;fill-opacity:1;stroke-width:0.457121;stroke-linecap:round"
       id="path845"
       d="m 10.285206,11.994328 c 0.05042,-0.06088 0.09868,-0.123624 0.151265,-0.182647 0.100497,-0.112799 0.476407,-0.506202 0.562322,-0.592781 0.290244,-0.292489 0.462845,-0.46988 0.811586,-0.705781 0.169964,-0.114971 0.353896,-0.207799 0.530843,-0.311698 0.466736,-0.18187 0.716946,-0.3220003 1.229681,-0.3482848 0.741061,-0.037987 1.500216,0.2118258 2.134097,0.5791498 0.210765,0.122138 0.398596,0.280142 0.597896,0.420213 0.347206,0.361788 0.577001,0.534036 0.781988,0.996707 0.145707,0.328885 0.19845,0.751841 0.164339,1.107316 -0.04826,0.502957 -0.176672,0.700931 -0.374048,1.162779 -0.128538,0.195488 -0.242384,0.401476 -0.385614,0.586468 -0.458341,0.591968 -1.042775,1.078838 -1.739839,1.364429 -0.228702,0.0937 -0.466447,0.171379 -0.709891,0.214024 -0.258744,0.04535 -0.524386,0.03209 -0.786582,0.04811 -0.672283,-0.07901 -0.997824,-0.07123 -1.633578,-0.329811 -0.706553,-0.287373 -1.35939,-0.79747 -1.7437973,-1.464122 -0.1135133,-0.196859 -0.1739415,-0.41988 -0.260912,-0.629822 -0.023405,-0.217443 -0.08273,-0.43399 -0.070208,-0.652334 0.028076,-0.489522 0.2460793,-0.964878 0.4636723,-1.390604 0.122422,-0.239522 0.279183,-0.460321 0.403459,-0.698883 0.126288,-0.242425 0.231693,-0.495172 0.347539,-0.742758 0,0 -0.01981,-0.01792 -0.01981,-0.01792 v 0 c -0.250152,0.156518 -0.530763,0.272554 -0.7504612,0.46955 -0.22678,0.203351 -0.4076628,0.456518 -0.5698535,0.714339 -0.319444,0.507807 -0.575089,1.1512 -0.5959474,1.760186 -0.00976,0.28491 0.083213,0.564051 0.1248192,0.846072 0.1166906,0.262195 0.2016301,0.540966 0.3500738,0.786582 0.4808064,0.795546 1.2627441,1.392043 2.1208811,1.728548 0.734643,0.288078 1.110428,0.275841 1.886514,0.359695 0.319605,-0.02523 0.64417,-0.01417 0.958825,-0.07567 1.125533,-0.219903 2.156734,-0.999336 2.82515,-1.909098 0.164756,-0.22425 0.291474,-0.474103 0.437214,-0.711157 0.219066,-0.601256 0.347732,-0.806864 0.373225,-1.453101 0.01998,-0.506289 -0.06468,-0.960869 -0.29594,-1.414708 -0.268988,-0.52788 -0.549962,-0.729205 -0.970418,-1.135851 -0.229095,-0.154512 -0.445542,-0.329667 -0.687277,-0.4635438 -0.745633,-0.4129495 -1.624887,-0.6717395 -2.484055,-0.61246 -0.587118,0.040501 -0.878381,0.206733 -1.40905,0.422261 -0.196474,0.1183624 -0.400542,0.2249493 -0.589422,0.3550868 -0.625228,0.430773 -1.111918,1.016066 -1.5776929,1.607005 0,0 0.3990059,0.314531 0.3990059,0.314531 z" />
  </g>
</svg>
